<?xml version="1.0" standalone="no"?>
<!DOCTYPE svg PUBLIC "-//W3C//DTD SVG 20010904//EN"
 "http://www.w3.org/TR/2001/REC-SVG-20010904/DTD/svg10.dtd">
<svg version="1.0" xmlns="http://www.w3.org/2000/svg"
 width="700.000000pt" height="700.000000pt" viewBox="0 0 700.000000 700.000000"
 preserveAspectRatio="xMidYMid meet">
<metadata>
Created by potrace 1.14, written by Peter Selinger 2001-2017
</metadata>
<g transform="translate(0.000000,700.000000) scale(0.100000,-0.100000)"
fill="#000000" stroke="none">
<path d="M394 6874 c-78 -16 -129 -42 -177 -91 -51 -50 -86 -120 -95 -190 -4
-32 -6 -818 -6 -1748 1 -1582 3 -1693 19 -1740 35 -100 106 -173 205 -209 197
-72 412 53 447 260 10 61 9 3404 -1 3458 -24 128 -146 247 -269 262 -23 3 -46
7 -52 8 -5 2 -38 -3 -71 -10z"/>
<path d="M1487 6882 c-16 -3 -17 -118 -17 -1671 l0 -1667 1218 1 c858 2 1227
5 1250 13 174 58 272 237 224 407 -26 96 -88 168 -182 213 l-55 27 -884 3
c-487 1 -887 4 -889 7 -5 5 -5 655 0 660 2 3 91 5 196 5 230 2 281 14 362 87
116 104 145 260 74 398 -29 58 -56 88 -118 129 -63 42 -108 49 -314 51 -105 1
-195 4 -198 8 -5 4 -8 486 -5 637 l1 25 862 -1 c940 0 916 -2 1008 57 77 48
125 116 145 202 38 169 -54 334 -220 392 -46 16 -134 18 -1246 19 -657 0
-1203 0 -1212 -2z"/>
<path d="M6197 6884 c-1 -1 -45 -4 -97 -7 -408 -25 -812 -264 -1035 -612 -143
-224 -210 -455 -209 -725 0 -91 11 -227 19 -240 2 -4 6 -18 9 -33 4 -15 8 -38
11 -50 12 -60 49 -158 94 -250 165 -343 483 -605 855 -707 150 -42 228 -49
516 -47 l275 2 58 30 c249 125 250 468 3 595 l-68 35 -217 2 c-269 2 -330 7
-411 34 -281 91 -469 346 -468 635 1 309 209 573 513 649 56 14 119 18 310 20
149 1 256 6 283 14 177 50 282 237 231 411 -34 117 -139 214 -255 236 -30 6
-410 13 -417 8z"/>
<path d="M3774 5539 c-101 -19 -203 -101 -246 -197 -16 -34 -22 -68 -22 -127
-1 -72 3 -88 32 -147 36 -73 86 -123 161 -160 37 -18 63 -22 136 -23 77 0 98
4 147 27 217 102 261 390 82 547 -77 68 -191 99 -290 80z"/>
<path d="M5160 3539 c-211 -18 -347 -211 -294 -415 23 -90 85 -168 164 -209
69 -35 100 -39 305 -40 l190 0 5 -540 c3 -297 10 -551 15 -565 76 -215 348
-297 528 -160 52 41 91 93 114 152 15 38 17 108 19 573 1 292 3 536 3 542 1
10 49 12 209 10 l207 -2 60 28 c274 128 256 513 -30 612 -45 16 -112 18 -740
19 -379 0 -719 -2 -755 -5z"/>
<path d="M1395 2872 c-48 -5 -178 -40 -210 -56 -17 -9 -34 -16 -38 -16 -23 0
-132 -82 -198 -150 -128 -132 -197 -301 -197 -485 0 -114 21 -202 75 -315 76
-158 229 -293 405 -356 128 -46 310 -51 438 -12 261 79 449 283 504 546 17 80
13 238 -8 316 -39 140 -128 278 -240 368 -67 54 -170 110 -236 129 -25 7 -47
13 -50 14 -45 13 -188 23 -245 17z"/>
<path d="M2827 2865 c-2 -5 -3 -606 -3 -1335 l1 -1325 390 0 c439 1 472 3 637
45 523 134 933 601 994 1135 73 637 -329 1242 -949 1431 -79 24 -151 39 -242
50 -86 11 -824 10 -828 -1z m808 -671 c97 -15 222 -77 315 -153 57 -48 127
-143 165 -226 116 -251 60 -554 -138 -747 -118 -115 -250 -176 -424 -195 l-53
-5 0 664 c0 366 3 668 7 672 7 6 47 3 128 -10z"/>
<path d="M408 1449 c-131 -20 -245 -118 -279 -240 -15 -57 -19 -1088 -4 -1090
6 -1 390 -2 855 -3 582 -1 861 2 895 9 111 25 197 92 242 192 21 45 26 73 27
134 0 66 -4 85 -32 142 -45 91 -118 151 -222 183 -14 4 -263 9 -555 10 -291 1
-533 2 -536 3 -4 0 -6 76 -5 169 1 92 -2 189 -7 216 -30 177 -202 301 -379
275z"/>
<path d="M5769 857 c-70 -20 -144 -75 -185 -138 -95 -149 -57 -346 86 -452 81
-59 90 -60 510 -62 212 -2 405 2 430 7 120 24 214 106 256 223 12 35 14 49 15
105 0 126 -80 248 -199 303 -45 21 -60 22 -457 24 -303 2 -422 -1 -456 -10z"/>
</g>
</svg>
